<svg><defs/><symbol id="circle"><circle cx="12.5" cy="12.5" r="11.5" fill="#000" fill-rule="evenodd"/></symbol><symbol id="close"><path d="M12.453 10.379l9.159-9.16 2.121 2.122-9.159 9.159 9.16 9.159-2.122 2.121-9.16-9.159-9.158 9.16-2.122-2.122 9.16-9.159-9.16-9.159L3.294 1.22z" fill="#000" fill-rule="evenodd"/></symbol><symbol id="menu"><path d="M1 1h23v3H1V1zm0 10h23v3H1v-3zm0 10h23v3H1v-3z" fill="#000" fill-rule="evenodd"/></symbol><symbol id="sprite"><symbol id="circle"><circle cx="12.5" cy="12.5" r="11.5" fill="#000" fill-rule="evenodd"/></symbol><symbol id="close"><path d="M10.379 12.5L3.308 5.429l2.12-2.121 7.072 7.07 7.071-7.07 2.121 2.12-7.07 7.072 7.07 7.071-2.12 2.121-7.072-7.07-7.071 7.07-2.121-2.12z" fill="#000" fill-rule="evenodd"/></symbol><symbol id="menu"><path d="M1 1h23v3H1V1zm0 10h23v3H1v-3zm0 10h23v3H1v-3z" fill="#000" fill-rule="evenodd"/></symbol><symbol id="sprite"><symbol id="circle"><circle cx="12.5" cy="12.5" r="11.5" fill="#000" fill-rule="evenodd"/></symbol><symbol id="square"><path d="M1 1h23v23H1z" fill="#000" fill-rule="evenodd"/></symbol></symbol><symbol id="square"><path d="M1 1h23v23H1z" fill="#000" fill-rule="evenodd"/></symbol></symbol><symbol id="square"><path d="M1 1h23v23H1z" fill="#000" fill-rule="evenodd"/></symbol></svg>